<?xml version="1.0" encoding="utf-8"?>
<!-- Generator: Adobe Illustrator 26.5.0, SVG Export Plug-In . SVG Version: 6.00 Build 0)  -->
<svg version="1.1" id="Layer_1" xmlns="http://www.w3.org/2000/svg" xmlns:xlink="http://www.w3.org/1999/xlink" x="0px" y="0px"
	 viewBox="0 0 808 340" style="enable-background:new 0 0 808 340;" xml:space="preserve">
<style type="text/css">
	.st0{fill:#6ABD45;}
	.st1{fill:#808285;}
	.st2{fill:none;}
</style>
<path class="st0" d="M173,205.3c5.6,0,14.5-1.1,14.5-9.8c0-19.6-66.3-8.3-67.1-56.9c0-32.1,26.1-45.3,50.6-45.3
	c25.3,0,46.4,11.9,50.1,43.2h-36.2c-1-9.8-9-12.3-16.3-12.3c-4.4,0-10.9,0.8-10.9,9.4c0,7.7,7.5,9.2,12.6,10.4l22.7,7
	c17.1,5.8,31.8,17.9,31.8,40.4c0,33.9-28.1,46.8-53.4,46.8c-28.1,0-48-12.4-53.4-46.4h37.6C157.7,202.1,164.2,205.3,173,205.3"/>
<path class="st0" d="M283.4,205.9h6.7v29.2c-7,0.4-14.4,0.9-21.6,0.9c-18.1,0-29.9-5.1-29.9-28.9v-51.1h-12.6v-23.2h12.6v-31.5h34.8
	v31.5h16.3v23.2h-16.3v40.5c0,4.1,1.8,7.9,5.5,8.9C280.5,205.9,282.1,205.9,283.4,205.9"/>
<path class="st0" d="M392.2,183.6c0,34.1-21.6,54.1-50,54.1c-28.2,0-49.6-20-49.6-54.1c0-33.9,21.2-54.3,49.6-54.3
	C370.8,129.3,392.2,149.7,392.2,183.6 M357.1,183.6c0-11.7-2.1-26.4-14.9-26.4c-12.7,0-14.5,14.7-14.5,26.4c0,11.5,2,26.4,14.5,26.4
	C354.8,210,357.1,195.1,357.1,183.6"/>
<path class="st0" d="M461.7,234.3v-14.9c-8.3,10.9-18,17.3-30.7,17.3c-14.7,0-27.4-7.9-30.9-25.3c-1.6-8.3-1.6-17.5-1.6-26v-52.6
	h34.9v52.4c0,9.1,1.5,20.2,11.4,20.2c10.3,0,13.7-9.8,13.7-20.4v-52.2h34.9v101.4L461.7,234.3L461.7,234.3z"/>
<path class="st0" d="M539.3,96.9v46.6c6.4-8.3,15.5-13.6,25.3-13.6c24.5,0,38.1,27,38.1,52.8c0,25.8-12.7,55.1-37.6,55.1
	c-12.2,0-20.6-5.9-28.7-15.7v12.3h-31.2V96.9H539.3z M567.9,183.6c0-10.6-3.8-22.4-14.4-22.4c-11.8,0-14.4,12.6-14.4,23.9
	c0,11.3,2,23,14.4,23C564.6,208.1,567.9,194,567.9,183.6"/>
<rect x="609.5" y="212.9" class="st1" width="18.5" height="21.5"/>
<path class="st1" d="M658.6,166.4c4.4-7.9,12-12.2,20-12.2c18.7,0,27.6,22.2,27.6,41.2c0,18.9-8.5,41.6-27.6,41.6
	c-8.7,0-15.5-4.9-20.2-13.1v10.5h-17.2v-105h17.5V166.4z M658.6,196c0,10.5,3.9,23.2,14.7,23.2c11.2,0,15-12.8,15-23.9
	c0-10.5-3.9-23-14.6-23C662.5,172.3,658.6,184.9,658.6,196"/>
<path class="st1" d="M733.3,148.4h-18v-19h18V148.4z M733.3,234.3h-18v-77.6h18V234.3z"/>
<polygon class="st1" points="777.1,173.1 742.4,173.1 742.4,156.7 798.6,156.7 798.6,173.7 762.3,217.2 799.8,217.2 799.8,234.3 
	740.2,234.3 740.2,218.4 "/>
<path class="st1" d="M289.3,111.1c-21.6-41.8-65.2-70.4-115.5-70.4c-71.7,0-129.9,58.1-129.9,129.9c0,71.7,58.1,129.9,129.9,129.9
	c43.7,0,82.4-21.6,105.9-54.7l28,19.4c-29.7,42-78.6,69.4-134,69.4c-90.6,0-164-73.4-164-164c0-90.6,73.4-164,164-164
	c63.4,0,118.5,36,145.7,88.7L289.3,111.1z"/>
<path class="st1" d="M172.2,260.5c-51,0-92.3-41.3-92.3-92.3c0-51,41.3-92.3,92.3-92.3c21.2,0,40.7,7.1,56.3,19.2
	c0.9-0.9,1.9-1.9,2.8-2.8c-16.3-12.7-36.8-20.3-59.1-20.3c-53.2,0-96.3,43.1-96.3,96.3c0,53.2,43.1,96.3,96.3,96.3
	c19.7,0,38-5.9,53.3-16.1c-0.7-1.1-1.4-2.3-2.1-3.4C208.8,254.8,191.2,260.5,172.2,260.5"/>
<rect x="-15" y="-136.3" class="st2" width="839.1" height="612.3"/>
</svg>
